<?xml version="1.0" encoding="iso-8859-1"?>
<!-- Generator: Adobe Illustrator 19.0.0, SVG Export Plug-In . SVG Version: 6.00 Build 0)  -->
<svg version="1.1" id="Layer_1" xmlns="http://www.w3.org/2000/svg" xmlns:xlink="http://www.w3.org/1999/xlink" x="0px" y="0px"
	 viewBox="0 0 512 512" style="enable-background:new 0 0 512 512;" xml:space="preserve">
<g>
	<g>
		<path d="M175.321,39.742h-57.976c-5.632,0-10.199,4.567-10.199,10.199v57.976c0,5.632,4.567,10.199,10.199,10.199h57.976
			c5.632,0,10.199-4.567,10.199-10.199V49.941C185.52,44.308,180.954,39.742,175.321,39.742z M165.122,97.719h-37.578V60.141h37.578
			V97.719z"/>
	</g>
</g>
<g>
	<g>
		<path d="M279.118,39.742h-57.976c-5.632,0-10.199,4.567-10.199,10.199v57.976c0,5.632,4.567,10.199,10.199,10.199h57.976
			c5.632,0,10.199-4.567,10.199-10.199V49.941C289.318,44.308,284.751,39.742,279.118,39.742z M268.919,97.719h-37.578V60.141
			h37.578V97.719z"/>
	</g>
</g>
<g>
	<g>
		<path d="M175.321,142.603h-57.976c-5.632,0-10.199,4.567-10.199,10.199v57.976c0,5.632,4.567,10.199,10.199,10.199h57.976
			c5.632,0,10.199-4.567,10.199-10.199v-57.976C185.52,147.17,180.954,142.603,175.321,142.603z M165.122,200.58h-37.578v-37.578
			h37.578V200.58z"/>
	</g>
</g>
<g>
	<g>
		<path d="M279.118,142.603h-57.976c-5.632,0-10.199,4.567-10.199,10.199v57.976c0,5.632,4.567,10.199,10.199,10.199h57.976
			c5.632,0,10.199-4.567,10.199-10.199v-57.976C289.318,147.17,284.751,142.603,279.118,142.603z M268.919,200.58h-37.578v-37.578
			h37.578V200.58z"/>
	</g>
</g>
<g>
	<g>
		<path d="M175.321,245.465h-57.976c-5.632,0-10.199,4.567-10.199,10.199v57.977c0,5.632,4.567,10.199,10.199,10.199h57.976
			c5.632,0,10.199-4.567,10.199-10.199v-57.977C185.52,250.031,180.954,245.465,175.321,245.465z M165.122,303.443h-37.578v-37.579
			h37.578V303.443z"/>
	</g>
</g>
<g>
	<g>
		<path d="M279.118,245.465h-57.976c-5.632,0-10.199,4.567-10.199,10.199v57.977c0,5.632,4.567,10.199,10.199,10.199h57.976
			c5.632,0,10.199-4.567,10.199-10.199v-57.977C289.318,250.031,284.751,245.465,279.118,245.465z M268.919,303.443h-37.578v-37.579
			h37.578V303.443z"/>
	</g>
</g>
<g>
	<g>
		<path d="M198.232,382.925c-5.632,0-10.199,4.567-10.199,10.199v0.935c0,5.632,4.567,10.199,10.199,10.199
			c5.632,0,10.199-4.567,10.199-10.199v-0.935C208.431,387.492,203.865,382.925,198.232,382.925z"/>
	</g>
</g>
<g>
	<g>
		<path d="M435.799,379.081h-8.193v-26.586c0-32.47-26.416-58.886-58.886-58.886c-14.596,0-27.957,5.349-38.257,14.176V10.199
			C330.462,4.567,325.895,0,320.263,0H76.201c-5.632,0-10.199,4.567-10.199,10.199v449.786c0,5.632,4.567,10.199,10.199,10.199
			H291.44v31.616c0,5.632,4.567,10.199,10.199,10.199h134.159c5.632,0,10.199-4.567,10.199-10.199V389.28
			C445.998,383.648,441.431,379.081,435.799,379.081z M330.232,352.494c0-21.221,17.265-38.488,38.488-38.488
			c21.223,0,38.488,17.266,38.488,38.488v26.586h-76.975V352.494z M235.723,449.786h-27.292v-27.672
			c0-5.632-4.567-10.199-10.199-10.199c-5.632,0-10.199,4.567-10.199,10.199v27.672H160.74V373.4h74.982V449.786z M309.949,379.081
			L309.949,379.081h-8.309c-5.632,0-10.199,4.567-10.199,10.199v60.506h-35.319v-86.585c0-5.632-4.567-10.199-10.199-10.199h-95.381
			c-5.632,0-10.199,4.567-10.199,10.199v86.585H86.4V20.398h223.548V379.081z M425.599,491.602H311.839v-92.122h113.761V491.602z"/>
	</g>
</g>
<g>
	<g>
		<path d="M368.72,423.44c-5.632,0-10.199,4.567-10.199,10.199v23.802c0,5.632,4.566,10.199,10.199,10.199
			c5.632,0,10.199-4.567,10.199-10.199V433.64C378.919,428.008,374.352,423.44,368.72,423.44z"/>
	</g>
</g>
<g>
</g>
<g>
</g>
<g>
</g>
<g>
</g>
<g>
</g>
<g>
</g>
<g>
</g>
<g>
</g>
<g>
</g>
<g>
</g>
<g>
</g>
<g>
</g>
<g>
</g>
<g>
</g>
<g>
</g>
</svg>
