<?xml version="1.0" encoding="iso-8859-1"?>
<!-- Generator: Adobe Illustrator 19.0.0, SVG Export Plug-In . SVG Version: 6.00 Build 0)  -->
<svg version="1.1" id="Layer_1" xmlns="http://www.w3.org/2000/svg" xmlns:xlink="http://www.w3.org/1999/xlink" x="0px" y="0px"
	 viewBox="0 0 496 496" style="enable-background:new 0 0 496 496;" xml:space="preserve">
<g>
	<g>
		<g>
			<path d="M295.016,349.52C333.32,331.704,360,292.952,360,248c0-16.28-3.808-32.44-10.696-47.216C356,191.552,360,180.248,360,168
				c0-29.624-23.144-53.888-52.288-55.816C315.464,100.704,320,86.872,320,72c0-39.704-32.296-72-72-72c-39.704,0-72,32.296-72,72
				c0,14.792,4.496,28.552,12.176,40h-2.88c-11.68,0-22.008-7.448-25.712-18.528L157.768,88H136v80c0,12.248,4,23.552,10.696,32.784
				C139.808,215.56,136,231.72,136,248c0,44.952,26.68,83.704,64.984,101.52C140.504,366.584,96,422.136,96,488v8h304v-8
				C400,422.136,355.496,366.584,295.016,349.52z M306.024,370.272c9.872,4.216,19.112,9.608,27.536,16.04l-30.184,54.328
				l-8.44-12.656L281.44,401L306.024,370.272z M268.16,392h-40.32l-21.848-27.312C216.84,361.696,228.216,360,240,360h16
				c11.784,0,23.16,1.696,34,4.688L268.16,392z M248,16c30.872,0,56,25.128,56,56s-25.128,56-56,56s-56-25.128-56-56
				S217.128,16,248,16z M152,112.28c8.016,9.76,20.12,15.72,33.296,15.72h17.544c12.36,9.984,28.064,16,45.16,16
				s32.792-6.016,45.16-16H304c22.056,0,40,17.944,40,40c0,22.056-17.944,40-40,40H192c-22.056,0-40-17.944-40-40V112.28z M152,248
				c0-12.168,2.296-23.912,6.72-35.072C168.032,219.848,179.528,224,192,224h112c12.472,0,23.968-4.152,33.28-11.072
				c4.424,11.16,6.72,22.904,6.72,35.072c0,52.936-43.064,96-96,96C195.064,344,152,300.936,152,248z M189.976,370.28l24.584,30.728
				l-13.496,26.976l-8.44,12.664L162.44,386.32C170.856,379.88,180.104,374.488,189.976,370.28z M209.44,480h-97.192
				c2.008-32.368,16.168-61.448,37.872-82.912l41.248,74.256l17.864-26.792l6.072,6.072L209.44,480z M270.24,480h-44.48
				l6.928-34.632l-14.952-14.944L228.944,408h38.112l11.208,22.424l-14.952,14.944L270.24,480z M286.56,480.008V480l-5.872-29.368
				l6.072-6.072l17.864,26.792l41.248-74.256c21.704,21.464,35.872,50.544,37.872,82.912H286.56z"/>
			<polygon points="392.432,232 403.096,200 464,200 464,184 408.432,184 415.584,162.528 400.416,157.472 375.568,232 
				400.416,306.528 415.584,301.472 408.432,280 496,280 496,264 403.096,264 			"/>
			<polygon points="95.584,157.472 80.416,162.528 87.568,184 0,184 0,200 92.904,200 103.568,232 92.904,264 0,264 0,280 
				87.568,280 80.416,301.472 95.584,306.528 120.432,232 			"/>
			<rect x="480" y="184" width="16" height="16"/>
			<polygon points="234.96,104 293.2,54.072 282.8,41.928 229.04,88 228.28,88 214.656,67.56 201.344,76.44 219.72,104 			"/>
			<rect x="416" y="224" width="16" height="16"/>
			<rect x="448" y="224" width="16" height="16"/>
			<rect x="64" y="224" width="16" height="16"/>
			<rect x="32" y="224" width="16" height="16"/>
		</g>
	</g>
</g>
<g>
</g>
<g>
</g>
<g>
</g>
<g>
</g>
<g>
</g>
<g>
</g>
<g>
</g>
<g>
</g>
<g>
</g>
<g>
</g>
<g>
</g>
<g>
</g>
<g>
</g>
<g>
</g>
<g>
</g>
</svg>
